<svg width="677" height="900" viewBox="0 0 677 900" fill="none" xmlns="http://www.w3.org/2000/svg">
<path d="M339.527 831.075C336.36 831.186 333.193 831.242 329.97 831.242C322.136 831.242 314.358 830.908 306.691 830.242C300.801 829.741 294.912 829.075 289.134 828.185C277.022 826.296 265.132 823.628 253.631 820.182C163.124 793.34 92.6185 719.924 69.8389 627.725C68.0054 620.389 66.5053 612.997 65.3385 605.439C63.1161 591.656 62.0049 577.596 62.0049 563.202C62.0049 548.808 62.2827 549.085 62.8383 542.138C63.6717 531.079 65.1718 520.242 67.3942 509.682C68.2832 505.07 69.3388 500.624 70.5056 496.178C72.5613 488.175 75.006 480.283 77.7284 472.558C82.6732 458.775 88.7293 445.548 95.7854 432.877C96.6188 431.377 97.5076 429.876 98.341 428.376C101.619 422.762 105.064 417.316 108.675 411.981C111.564 407.702 114.62 403.533 117.787 399.476C127.899 386.416 139.122 374.356 151.401 363.352C153.845 361.129 156.401 358.962 158.957 356.906C205.349 318.336 264.965 295.161 330.026 295.161C395.086 295.161 340.193 295.272 345.249 295.606L339.582 831.075H339.527Z" fill="#009168"/>
<path d="M597.936 563.202C597.936 570.871 597.602 578.485 596.991 585.932C595.88 599.381 593.769 612.553 590.713 625.335C583.101 657.402 569.711 687.19 551.71 713.644C543.987 724.982 535.431 735.708 526.152 745.767C479.26 796.174 413.143 828.463 339.527 831.075L326.47 297.718C332.859 297.384 339.082 296.717 345.249 295.606C376.029 297.329 405.421 304.22 432.589 315.502C450.091 322.727 466.592 331.785 481.982 342.345C485.816 345.012 489.538 347.736 493.261 350.57C493.483 350.737 493.65 350.903 493.872 351.07C497.261 353.682 500.595 356.405 503.873 359.184C506.206 361.185 508.54 363.186 510.818 365.297C527.819 380.859 542.876 398.587 555.377 418.094C561.877 428.153 567.711 438.657 572.823 449.605C578.879 462.499 583.879 476.004 587.879 489.898C589.768 496.4 591.38 503.069 592.713 509.794C592.991 511.239 593.269 512.739 593.547 514.24C594.991 522.131 596.158 530.19 596.88 538.304C597.436 544.361 597.769 550.475 597.936 556.644C597.991 558.811 597.991 561.034 597.991 563.202H597.936Z" fill="#C8E0EC"/>
<path d="M536.542 629.503C536.542 740.932 446.313 831.186 334.915 831.186C223.518 831.186 133.233 740.876 133.233 629.503C133.233 518.13 137.511 581.875 145.4 560.312C148.401 552.087 151.901 544.139 155.957 536.414C160.235 528.189 165.124 520.242 170.458 512.739C181.514 497.178 194.738 483.284 209.683 471.447C215.961 466.5 222.517 461.832 229.351 457.664C239.241 451.55 249.686 446.326 260.632 441.992C283.633 432.877 308.691 427.82 334.915 427.82C446.313 427.82 536.542 518.13 536.542 629.503Z" fill="#C8E0EC"/>
<path d="M468.037 148.942C468.037 162.336 466.259 175.341 462.925 187.734C458.036 205.963 449.757 222.858 438.757 237.641C412.977 272.375 372.418 295.439 326.47 297.662L319.192 0C370.196 0 415.255 25.6758 442.09 64.801C448.757 74.5267 454.258 85.086 458.48 96.2011C459.869 99.8135 461.092 103.481 462.147 107.205C463.314 111.151 464.259 115.152 465.092 119.209C466.203 124.767 467.036 130.491 467.537 136.271C467.759 139.161 467.925 142.051 468.037 144.996C468.037 146.275 468.037 147.608 468.037 148.887V148.942Z" fill="#F5A029"/>
<path d="M323.803 190.457C296.745 205.407 270.743 222.858 246.575 242.365C227.684 257.592 209.794 274.098 193.015 291.938L138.511 58.5211L145.567 61.5777C151.178 64.023 156.901 66.4128 162.624 68.6358C213.683 88.7541 267.576 100.814 321.747 104.538L367.918 138.994L323.858 190.513L323.803 190.457Z" fill="#D8343D"/>
<path d="M511.596 84.308C511.596 84.308 462.869 95.4231 458.369 96.2568C458.369 96.2568 441.035 114.43 441.868 118.487C443.035 124.044 467.481 136.327 467.481 136.327C471.037 135.549 521.485 126.379 521.485 126.379L511.651 84.308H511.596Z" fill="#D8343D"/>
<path d="M467.481 136.327C441.479 141.995 416.032 149.665 391.364 159.057C368.14 167.894 345.527 178.397 323.803 190.457L321.692 104.538C343.193 105.983 364.751 106.149 386.363 105.038C410.476 103.759 434.534 100.87 458.425 96.2568C459.814 99.8692 461.036 103.537 462.092 107.261C463.258 111.207 464.203 115.208 465.036 119.265C466.147 124.823 466.981 130.547 467.481 136.327Z" fill="#D6DAC1"/>
<path d="M246.519 242.365C227.629 257.592 209.739 274.154 192.96 291.938L138.455 58.521L145.456 61.5776C151.123 64.023 156.79 66.4127 162.513 68.6357L246.519 242.365Z" fill="#851249"/>
<path d="M564.766 323.282C558.988 322.393 553.043 321.893 547.043 321.893C524.374 321.893 503.317 328.506 485.593 339.899C484.371 340.733 483.093 341.511 481.926 342.4L596.824 538.304C600.102 536.748 603.269 535.025 606.325 533.08C609.492 531.19 612.492 529.134 615.437 526.911C643.106 506.126 660.996 473.058 660.996 435.823C660.996 378.913 619.326 331.785 564.877 323.282H564.766Z" fill="#D8343D"/>
<path d="M596.769 538.304C581.768 545.64 564.878 549.752 547.043 549.752C484.149 549.752 433.145 498.734 433.145 435.823C433.145 372.911 452.424 362.963 481.871 342.4C485.705 345.068 489.427 347.791 493.15 350.625C493.372 350.792 493.539 350.959 493.761 351.126C497.15 353.738 500.484 356.461 503.762 359.24C506.095 361.24 508.429 363.241 510.707 365.353C527.708 380.914 542.765 398.643 555.266 418.15C561.766 428.209 567.6 438.713 572.712 449.661C578.768 462.554 583.768 476.059 587.768 489.953C589.657 496.455 591.268 503.124 592.602 509.849C592.88 511.294 593.158 512.795 593.435 514.295C594.88 522.187 596.047 530.245 596.769 538.359V538.304Z" fill="#E95821"/>
<path d="M632.438 440.213C632.438 459.22 626.549 476.837 616.437 491.342C611.881 497.9 606.492 503.791 600.38 508.96C598.158 510.849 595.824 512.572 593.435 514.24C593.157 512.739 592.88 511.294 592.602 509.793C591.213 503.069 589.601 496.455 587.768 489.897C583.823 476.004 578.767 462.499 572.711 449.605C567.6 438.712 561.766 428.153 555.265 418.094C542.709 398.587 527.708 380.858 510.707 365.297C508.429 363.185 506.151 361.185 503.762 359.184C504.817 358.684 505.928 358.128 506.873 357.739C517.818 353.015 529.93 350.348 542.654 350.348C555.377 350.348 573.1 354.405 585.935 361.463C613.659 376.746 632.438 406.256 632.438 440.157V440.213Z" fill="#F5A029"/>
<path d="M593.435 514.24C578.99 524.188 561.488 530.023 542.653 530.023C493.039 530.023 452.869 489.842 452.869 440.213C452.869 390.584 473.648 373.689 503.762 359.24C506.095 361.24 508.429 363.241 510.707 365.353C527.708 380.914 542.765 398.643 555.266 418.15C561.766 428.209 567.6 438.713 572.712 449.661C578.768 462.554 583.768 476.059 587.768 489.953C589.657 496.455 591.268 503.124 592.602 509.849C592.88 511.294 593.158 512.795 593.435 514.295L593.435 514.24Z" fill="#D6DAC1"/>
<path d="M582.101 374.467C603.857 374.467 621.493 356.826 621.493 335.064C621.493 313.303 603.857 295.661 582.101 295.661C560.346 295.661 542.709 313.303 542.709 335.064C542.709 356.826 560.346 374.467 582.101 374.467Z" fill="#2F61AA"/>
<path d="M666.818 449.998C674.643 446.756 678.358 437.783 675.117 429.957C671.876 422.13 662.906 418.413 655.082 421.655C647.257 424.897 643.542 433.87 646.783 441.696C650.024 449.523 658.994 453.24 666.818 449.998Z" fill="#E95821"/>
<path d="M444.09 420.484C463.453 420.484 479.148 404.783 479.148 385.416C479.148 366.048 463.453 350.348 444.09 350.348C424.728 350.348 409.032 366.048 409.032 385.416C409.032 404.783 424.728 420.484 444.09 420.484Z" fill="#F5A029"/>
<path d="M456.772 492.249C466.188 482.83 466.188 467.558 456.772 458.139C447.355 448.719 432.087 448.719 422.671 458.138C413.254 467.558 413.254 482.83 422.671 492.249C432.087 501.668 447.355 501.668 456.772 492.249Z" fill="#2F61AA"/>
<path d="M507.595 565.035C522.109 565.035 533.875 553.266 533.875 538.748C533.875 524.23 522.109 512.461 507.595 512.461C493.081 512.461 481.315 524.23 481.315 538.748C481.315 553.266 493.081 565.035 507.595 565.035Z" fill="#002A3A"/>
<path d="M70.45 496.122L62.8383 542.138L9.6675 671.351L0 667.405L70.45 496.122Z" fill="#009168"/>
<path d="M112.953 405.923L105.675 410.591L98.341 428.376L70.5055 496.122C69.3388 500.568 68.2831 505.07 67.3941 509.627C65.2273 520.242 63.7273 531.079 62.8383 542.138L75.9504 510.294L77.9505 505.403L79.4506 501.735L115.176 414.815L112.898 405.867L112.953 405.923Z" fill="#C8E0EC"/>
<path d="M142.345 348.791C141.845 348.569 141.289 348.291 140.789 348.069C140.122 347.791 139.511 347.513 138.844 347.18C136.844 346.291 134.844 345.401 132.844 344.568C125.065 341.233 117.398 338.232 109.953 335.564C61.7271 318.336 21.724 315.613 14.9457 330.674C8.44522 345.179 34.7805 371.855 76.9505 395.808C82.6732 399.087 102.064 408.924 105.731 410.591C106.731 411.036 107.731 411.536 108.731 411.981C108.731 411.981 154.234 412.536 166.513 401.533C168.958 399.309 158.957 356.85 158.957 356.85C153.623 354.071 148.067 351.403 142.4 348.736L142.345 348.791Z" fill="#851249"/>
<path d="M230.907 412.926C225.907 404.145 215.795 393.974 201.96 383.526C190.07 374.579 175.458 365.464 158.901 356.906C156.346 359.017 153.845 361.129 151.345 363.352C139.067 374.356 127.843 386.416 117.732 399.476C114.565 403.533 111.564 407.701 108.62 411.981C108.897 412.092 109.231 412.259 109.509 412.37C111.398 413.203 113.287 414.037 115.12 414.871C128.288 420.539 141.178 425.263 153.345 428.987C166.18 432.877 178.181 435.656 188.848 437.212C212.461 440.713 229.296 438.212 233.463 428.876C235.407 424.541 234.407 419.039 230.907 412.87V412.926Z" fill="#F5A029"/>
<path d="M329.97 241.031C339.697 241.031 347.583 233.143 347.583 223.413C347.583 213.684 339.697 205.796 329.97 205.796C320.243 205.796 312.358 213.684 312.358 223.413C312.358 233.143 320.243 241.031 329.97 241.031Z" fill="#C8E0EC"/>
<path d="M340.766 269.482C342.093 263.866 338.618 258.237 333.004 256.91C327.39 255.582 321.763 259.059 320.436 264.674C319.109 270.29 322.584 275.918 328.198 277.246C333.812 278.573 339.439 275.097 340.766 269.482Z" fill="#D8343D"/>
<path d="M560.988 752.825C560.988 752.603 560.988 752.436 560.988 752.269C559.822 739.042 556.766 726.038 551.765 713.644L306.691 830.186C308.302 833.132 310.024 836.021 311.913 838.8C321.025 852.694 332.915 865.199 347.361 875.369C354.195 880.204 361.417 884.317 368.807 887.707C424.978 913.494 493.872 898.044 532.986 847.637C554.821 819.516 563.877 785.559 561.099 752.769L560.988 752.825Z" fill="#D8343D"/>
<path d="M551.765 713.644C544.043 724.982 535.486 735.708 526.208 745.767C479.315 796.174 413.199 828.463 339.582 831.075C336.415 831.186 333.248 831.242 330.026 831.242C322.192 831.242 314.414 830.908 306.746 830.242C299.524 817.237 294.579 803.121 291.967 788.671C285.856 755.048 261.521 727.872 228.796 717.868C222.462 715.923 201.294 703.807 197.071 700.139C164.902 672.018 158.179 623.612 181.459 587.822C181.681 587.432 181.959 587.099 182.181 586.766C187.181 579.318 193.126 572.872 199.738 567.536C229.963 543.028 274.021 541.249 306.413 565.758C314.914 572.149 321.914 579.819 327.303 588.322C329.304 591.489 331.526 594.491 333.859 597.269C341.027 605.884 349.75 612.942 359.417 618.277C375.252 626.947 393.642 630.892 412.199 629.003C444.979 625.724 479.093 634.283 507.484 655.735C528.041 671.24 542.931 691.414 551.821 713.644L551.765 713.644Z" fill="#002A3A"/>
<path d="M287.967 666.627C300.135 662.57 312.636 659.458 325.248 657.346L469.426 760.439L446.09 785.948L287.912 666.627H287.967Z" fill="#2F61AA"/>
<path d="M155.957 536.47C151.956 544.139 148.401 552.142 145.4 560.367L75.8949 510.294L85.6735 486.507L155.901 536.47H155.957Z" fill="#D8343D"/>
<path d="M199.627 567.481C196.015 570.426 192.626 573.65 189.459 577.207C188.626 578.151 187.792 579.096 186.959 580.097C185.292 582.208 183.626 584.376 182.07 586.71L145.4 560.312C148.401 552.087 151.901 544.139 155.957 536.414L199.627 567.481Z" fill="#F5A029"/>
<path d="M199.627 567.481L325.248 657.346C312.58 659.458 300.135 662.515 287.967 666.627L182.07 586.766C187.07 579.319 193.015 572.872 199.627 567.537L199.627 567.481Z" fill="#D6DAC1"/>
<path d="M279.078 644.842L276.744 647.898L77.9505 505.403L79.4506 501.735L279.078 644.842Z" fill="#002A3A"/>
<path d="M347.472 654.679C346.138 653.234 344.638 651.9 342.972 650.677C327.081 638.673 304.468 641.841 292.523 657.735C290.412 660.57 288.745 663.571 287.578 666.739C282.022 681.299 286.523 698.361 299.579 708.253C315.469 720.258 338.082 717.09 350.028 701.195C360.806 686.912 359.306 667.294 347.416 654.734L347.472 654.679Z" fill="#F5A029"/>
</svg>
