<svg width="345" height="128" viewBox="0 0 345 128" fill="none" xmlns="http://www.w3.org/2000/svg">
<path d="M315 98.84V56.72H321.24V61.82C322.16 60.18 323.44 58.8 325.08 57.68C326.76 56.56 328.92 56 331.56 56C334.04 56 336.26 56.52 338.22 57.56C340.18 58.6 341.72 60.18 342.84 62.3C344 64.42 344.58 67.1 344.58 70.34C344.58 73.3 343.98 75.88 342.78 78.08C341.58 80.24 339.98 81.92 337.98 83.12C335.98 84.28 333.74 84.86 331.26 84.86C328.9 84.86 326.88 84.44 325.2 83.6C323.52 82.76 322.2 81.6 321.24 80.12V98.84H315ZM329.76 79.4C332.48 79.4 334.5 78.54 335.82 76.82C337.18 75.1 337.86 73 337.86 70.52C337.86 67.92 337.18 65.78 335.82 64.1C334.5 62.42 332.48 61.58 329.76 61.58C328.32 61.58 326.98 61.92 325.74 62.6C324.5 63.28 323.5 64.26 322.74 65.54C321.98 66.82 321.6 68.36 321.6 70.16V70.58C321.6 72.34 321.98 73.9 322.74 75.26C323.5 76.58 324.5 77.6 325.74 78.32C326.98 79.04 328.32 79.4 329.76 79.4Z" fill="white"/>
<path d="M263.865 86C260.138 86 257.103 85.3139 254.762 83.9418C252.422 82.5281 250.709 80.6778 249.626 78.3909C248.542 76.104 248 73.6715 248 71.0936C248 67.9751 248.65 65.2931 249.951 63.0478C251.294 60.8025 253.137 59.0769 255.478 57.8711C257.818 56.6237 260.463 56 263.41 56C268.135 56 271.581 57.2682 273.749 59.8046C275.916 62.2994 277 65.6674 277 69.9085C277 71.0312 276.935 72.1954 276.805 73.4012H255.348C255.824 75.9792 256.778 77.8295 258.209 78.9522C259.682 80.0333 261.633 80.5738 264.061 80.5738C266.401 80.5738 268.244 80.3659 269.587 79.9501C270.931 79.5343 272.037 79.1185 272.904 78.7027L275.049 83.5052C274.182 84.0457 272.839 84.6071 271.018 85.1892C269.197 85.7297 266.813 86 263.865 86ZM255.348 68.7235H270.173C270.216 66.0208 269.587 64.1705 268.287 63.1726C266.987 62.1746 265.296 61.6757 263.215 61.6757C261.048 61.6757 259.271 62.237 257.883 63.3597C256.54 64.4407 255.694 66.2287 255.348 68.7235Z" fill="white"/>
<path d="M296.708 87C293.999 87 291.528 86.5366 289.294 85.6099C287.08 84.6634 285.311 83.0662 283.987 80.8183C282.662 78.5507 282 75.4451 282 71.5014V48.8548C282 46.7259 283.726 45 285.855 45C287.984 45 289.71 46.7259 289.71 48.8548V72.3296C289.71 74.6563 290.085 76.4113 290.836 77.5944C291.607 78.7577 292.527 79.5465 293.594 79.9606C294.662 80.3549 295.66 80.5521 296.589 80.5521C297.558 80.5521 298.556 80.3549 299.584 79.9606C300.632 79.5662 301.511 78.7873 302.223 77.624C302.935 76.4409 303.29 74.6761 303.29 72.3296V48.8548C303.29 46.7259 305.016 45 307.145 45C309.274 45 311 46.7259 311 48.8548V71.5014C311 75.4451 310.358 78.5507 309.073 80.8183C307.788 83.0662 306.058 84.6634 303.883 85.6099C301.729 86.5366 299.337 87 296.708 87Z" fill="#00FFFF"/>
<path d="M221 86V56.7059H227.708L227.853 60.5588C228.605 59.3824 229.655 58.3333 231.005 57.4118C232.354 56.4706 234.128 56 236.325 56C239.255 56 241.434 56.9412 242.86 58.8235C244.287 60.7059 245 63.3137 245 66.6471V86H237.598V67.2941C237.598 65.6667 237.26 64.3529 236.586 63.3529C235.911 62.3333 234.88 61.8235 233.492 61.8235C232.142 61.8235 230.957 62.3333 229.935 63.3529C228.913 64.3529 228.402 65.6667 228.402 67.2941V86H221Z" fill="white"/>
<path d="M202.82 86.32C199.8 86.32 197.57 85.36 196.13 83.44C194.71 81.5 194 78.84 194 75.46V55.72H201.5V74.8C201.5 76.44 201.8 77.78 202.4 78.82C203 79.86 204.02 80.38 205.46 80.38C206.88 80.38 208.06 79.86 209 78.82C209.96 77.78 210.44 76.44 210.44 74.8V55.72H217.94V85.6H211.16L211.01 81.73C210.27 82.91 209.26 83.97 207.98 84.91C206.72 85.85 205 86.32 202.82 86.32Z" fill="white"/>
<path d="M185.5 86C183.367 86 181.639 84.2712 181.639 82.1386V56.4664C181.639 53.8047 179.481 51.6471 176.819 51.6471H175.324C173.488 51.6471 172 50.1591 172 48.3235C172 46.488 173.488 45 175.324 45H195.676C197.512 45 199 46.488 199 48.3235C199 50.1591 197.512 51.6471 195.676 51.6471H194.181C191.519 51.6471 189.361 53.8047 189.361 56.4663V82.1386C189.361 84.2712 187.633 86 185.5 86Z" fill="#00FFFF"/>
<rect width="128" height="128" rx="64" fill="url(#paint0_linear_9_55)"/>
<path fill-rule="evenodd" clip-rule="evenodd" d="M17.4545 56.7272C19.0611 56.7272 20.3636 58.0296 20.3636 59.6363V68.3636C20.3636 69.9702 19.0611 71.2726 17.4545 71.2726V71.2726C15.8479 71.2726 14.5454 69.9702 14.5454 68.3636V59.6363C14.5454 58.0296 15.8479 56.7272 17.4545 56.7272V56.7272Z" fill="white"/>
<path fill-rule="evenodd" clip-rule="evenodd" d="M29.0909 43.9272C30.6976 43.9272 32 45.2297 32 46.8363V80C32 81.6066 30.6976 82.9091 29.0909 82.9091V82.9091C27.4843 82.9091 26.1818 81.6066 26.1818 80L26.1818 46.8363C26.1818 45.2297 27.4843 43.9272 29.0909 43.9272V43.9272Z" fill="white"/>
<path fill-rule="evenodd" clip-rule="evenodd" d="M37.8182 43.5473C37.8182 40.334 35.2133 37.7291 32 37.7291H29.0909C27.4843 37.7291 26.1818 36.4267 26.1818 34.82V34.82C26.1818 33.2134 27.4843 31.9109 29.0909 31.9109L52.3636 31.9109C53.9703 31.9109 55.2727 33.2134 55.2727 34.82V34.82C55.2727 36.4267 53.9703 37.7291 52.3636 37.7291L49.4546 37.7291C46.2413 37.7291 43.6364 40.334 43.6364 43.5473L43.6364 89.6889C43.6364 91.2956 42.3339 92.598 40.7273 92.598V92.598C39.1206 92.598 37.8182 91.2956 37.8182 89.6889L37.8182 43.5473Z" fill="#00FFFF"/>
<path fill-rule="evenodd" clip-rule="evenodd" d="M52.3636 43.9272C53.9703 43.9272 55.2727 45.2297 55.2727 46.8363V98.6181C55.2727 100.225 53.9703 101.527 52.3636 101.527V101.527C50.757 101.527 49.4545 100.225 49.4545 98.6181V46.8363C49.4545 45.2297 50.757 43.9272 52.3636 43.9272V43.9272Z" fill="white"/>
<path fill-rule="evenodd" clip-rule="evenodd" d="M63.9999 109.673C62.3932 109.673 61.0908 108.37 61.0908 106.764L61.0908 21.2364C61.0908 19.6297 62.3932 18.3273 63.9998 18.3273C65.6065 18.3273 66.9089 19.6297 66.9089 21.2364L66.9089 106.764C66.9089 108.37 65.6065 109.673 63.9999 109.673Z" fill="white"/>
<path fill-rule="evenodd" clip-rule="evenodd" d="M75.6363 30.1091C77.2429 30.1091 78.5454 31.4115 78.5454 33.0182L78.5454 83.3454C78.5454 88.1654 82.4527 92.0727 87.2726 92.0727C92.0926 92.0727 95.9999 88.1654 95.9999 83.3454V52.2182C95.9999 50.6115 97.3023 49.3091 98.909 49.3091V49.3091C100.516 49.3091 101.818 50.6115 101.818 52.2182V83.3454C101.818 91.3787 95.3059 97.8909 87.2726 97.8909C79.2394 97.8909 72.7272 91.3787 72.7272 83.3454L72.7272 33.0182C72.7272 31.4115 74.0296 30.1091 75.6363 30.1091V30.1091Z" fill="#00FFFF"/>
<path fill-rule="evenodd" clip-rule="evenodd" d="M87.2727 38.8363C88.8793 38.8363 90.1818 40.1388 90.1818 41.7454V83.6363C90.1818 85.243 88.8793 86.5454 87.2727 86.5454V86.5454C85.666 86.5454 84.3636 85.243 84.3636 83.6363V41.7454C84.3636 40.1388 85.666 38.8363 87.2727 38.8363V38.8363Z" fill="white"/>
<path fill-rule="evenodd" clip-rule="evenodd" d="M110.545 57.6C112.152 57.6 113.454 58.9024 113.454 60.5091V67.4909C113.454 69.0975 112.152 70.4 110.545 70.4V70.4C108.939 70.4 107.636 69.0975 107.636 67.4909V60.5091C107.636 58.9024 108.939 57.6 110.545 57.6V57.6Z" fill="white"/>
<defs>
<linearGradient id="paint0_linear_9_55" x1="64" y1="34.0364" x2="64" y2="139.927" gradientUnits="userSpaceOnUse">
<stop stop-color="#0A74DA"/>
<stop offset="1" stop-color="#6203A7"/>
</linearGradient>
</defs>
</svg>
