<svg width="368" height="505" viewBox="0 0 368 505" fill="none" xmlns="http://www.w3.org/2000/svg">
<g clip-path="url(#clip0_12_72)">
<path d="M368 184C368 82.3796 285.62 0 184 0C82.3796 0 0 82.3796 0 184C0 285.62 82.3796 368 184 368C285.62 368 368 285.62 368 184Z" fill="url(#paint0_linear_12_72)"/>
<path fill-rule="evenodd" clip-rule="evenodd" d="M50.1817 163.091C54.8007 163.091 58.5453 166.835 58.5453 171.454V196.545C58.5453 201.164 54.8007 204.909 50.1817 204.909C45.5627 204.909 41.818 201.164 41.818 196.545V171.454C41.818 166.835 45.5627 163.091 50.1817 163.091Z" fill="white"/>
<path fill-rule="evenodd" clip-rule="evenodd" d="M83.6358 126.291C88.255 126.291 91.9994 130.035 91.9994 134.654V230C91.9994 234.619 88.255 238.364 83.6358 238.364C79.0168 238.364 75.2721 234.619 75.2721 230V134.654C75.2721 130.035 79.0168 126.291 83.6358 126.291Z" fill="white"/>
<path fill-rule="evenodd" clip-rule="evenodd" d="M108.727 125.198C108.727 115.96 101.238 108.471 91.9994 108.471H83.6358C79.0168 108.471 75.2721 104.727 75.2721 100.107C75.2721 95.4885 79.0168 91.7438 83.6358 91.7438H150.545C155.164 91.7438 158.909 95.4885 158.909 100.107C158.909 104.727 155.164 108.471 150.545 108.471H142.181C132.943 108.471 125.454 115.96 125.454 125.198V257.856C125.454 262.475 121.709 266.219 117.09 266.219C112.471 266.219 108.727 262.475 108.727 257.856V125.198Z" fill="#00FFFF"/>
<path fill-rule="evenodd" clip-rule="evenodd" d="M150.545 126.291C155.164 126.291 158.909 130.035 158.909 134.654V283.527C158.909 288.147 155.164 291.89 150.545 291.89C145.926 291.89 142.182 288.147 142.182 283.527V134.654C142.182 130.035 145.926 126.291 150.545 126.291Z" fill="white"/>
<path fill-rule="evenodd" clip-rule="evenodd" d="M184 315.31C179.381 315.31 175.636 311.564 175.636 306.946V61.0547C175.636 56.4354 179.381 52.691 184 52.691C188.619 52.691 192.363 56.4354 192.363 61.0547V306.946C192.363 311.564 188.619 315.31 184 315.31Z" fill="white"/>
<path fill-rule="evenodd" clip-rule="evenodd" d="M217.454 86.5637C222.073 86.5637 225.818 90.3081 225.818 94.9273V239.618C225.818 253.476 237.052 264.709 250.909 264.709C264.766 264.709 276 253.476 276 239.618V150.127C276 145.508 279.744 141.764 284.363 141.764C288.983 141.764 292.727 145.508 292.727 150.127V239.618C292.727 262.714 274.004 281.436 250.909 281.436C227.813 281.436 209.091 262.714 209.091 239.618V94.9273C209.091 90.3081 212.835 86.5637 217.454 86.5637Z" fill="#00FFFF"/>
<path fill-rule="evenodd" clip-rule="evenodd" d="M250.909 111.654C255.528 111.654 259.273 115.399 259.273 120.018V240.454C259.273 245.074 255.528 248.818 250.909 248.818C246.29 248.818 242.545 245.074 242.545 240.454V120.018C242.545 115.399 246.29 111.654 250.909 111.654Z" fill="white"/>
<path fill-rule="evenodd" clip-rule="evenodd" d="M317.817 165.6C322.437 165.6 326.18 169.344 326.18 173.964V194.036C326.18 198.655 322.437 202.4 317.817 202.4C313.2 202.4 309.453 198.655 309.453 194.036V173.964C309.453 169.344 313.2 165.6 317.817 165.6Z" fill="white"/>
</g>
<path d="M292.438 505V424.421H304.37V434.178C306.129 431.04 308.577 428.4 311.713 426.258C314.925 424.115 319.056 423.044 324.104 423.044C328.846 423.044 333.091 424.039 336.839 426.028C340.587 428.018 343.531 431.04 345.673 435.096C347.891 439.152 349 444.279 349 450.477C349 456.14 347.853 461.076 345.558 465.285C343.264 469.417 340.204 472.631 336.38 474.926C332.555 477.146 328.272 478.255 323.53 478.255C319.017 478.255 315.155 477.452 311.942 475.845C308.73 474.238 306.206 472.019 304.37 469.187V505H292.438ZM320.662 467.81C325.863 467.81 329.725 466.165 332.249 462.874C334.85 459.584 336.15 455.566 336.15 450.822C336.15 445.848 334.85 441.754 332.249 438.54C329.725 435.326 325.863 433.719 320.662 433.719C317.908 433.719 315.346 434.369 312.975 435.67C310.604 436.971 308.692 438.846 307.238 441.295C305.785 443.743 305.059 446.689 305.059 450.133V450.936C305.059 454.303 305.785 457.288 307.238 459.89C308.692 462.415 310.604 464.366 312.975 465.744C315.346 467.121 317.908 467.81 320.662 467.81Z" fill="white"/>
<path d="M194.661 480.436C187.533 480.436 181.731 479.124 177.255 476.499C172.779 473.794 169.504 470.254 167.432 465.879C165.36 461.504 164.324 456.851 164.324 451.919C164.324 445.953 165.567 440.822 168.054 436.527C170.623 432.231 174.146 428.93 178.622 426.623C183.098 424.237 188.154 423.044 193.791 423.044C202.826 423.044 209.415 425.47 213.56 430.322C217.704 435.095 219.776 441.538 219.776 449.652C219.776 451.8 219.652 454.027 219.403 456.334H178.374C179.285 461.266 181.109 464.805 183.844 466.953C186.662 469.021 190.392 470.055 195.034 470.055C199.51 470.055 203.033 469.658 205.602 468.862C208.172 468.067 210.286 467.271 211.943 466.476L216.046 475.663C214.389 476.697 211.819 477.771 208.338 478.885C204.856 479.919 200.298 480.436 194.661 480.436ZM178.374 447.385H206.721C206.804 442.214 205.602 438.675 203.116 436.765C200.629 434.856 197.397 433.902 193.418 433.902C189.273 433.902 185.875 434.976 183.223 437.123C180.653 439.192 179.037 442.612 178.374 447.385Z" fill="white"/>
<path d="M257.46 482.349C252.282 482.349 247.557 481.463 243.285 479.69C239.052 477.879 235.669 474.824 233.136 470.523C230.604 466.185 229.337 460.244 229.337 452.699V409.375C229.337 405.302 232.637 402 236.708 402C240.779 402 244.079 405.302 244.079 409.375V454.284C244.079 458.735 244.797 462.092 246.234 464.355C247.708 466.581 249.466 468.09 251.507 468.882C253.548 469.637 255.457 470.014 257.234 470.014C259.086 470.014 260.995 469.637 262.96 468.882C264.964 468.128 266.646 466.638 268.007 464.412C269.367 462.149 270.048 458.773 270.048 454.284V409.375C270.048 405.302 273.348 402 277.419 402C281.49 402 284.79 405.302 284.79 409.375V452.699C284.79 460.244 283.561 466.185 281.104 470.523C278.647 474.824 275.34 477.879 271.182 479.69C267.062 481.463 262.488 482.349 257.46 482.349Z" fill="#00FFFF"/>
<path d="M112.696 480.436V424.394H125.523L125.8 431.765C127.237 429.515 129.246 427.508 131.826 425.745C134.407 423.944 137.798 423.044 142 423.044C147.603 423.044 151.768 424.844 154.496 428.445C157.224 432.047 158.587 437.036 158.587 443.412V480.436H144.433V444.65C144.433 441.537 143.788 439.024 142.498 437.111C141.208 435.16 139.235 434.185 136.582 434.185C134.001 434.185 131.734 435.16 129.781 437.111C127.827 439.024 126.85 441.537 126.85 444.65V480.436H112.696Z" fill="white"/>
<path d="M77.9327 481.048C72.158 481.048 67.8938 479.212 65.1403 475.539C62.4251 471.827 61.0674 466.738 61.0674 460.272V422.508H75.4086V459.01C75.4086 462.147 75.9823 464.711 77.1296 466.7C78.2769 468.69 80.2273 469.685 82.9808 469.685C85.696 469.685 87.9524 468.69 89.7498 466.7C91.5855 464.711 92.5033 462.147 92.5033 459.01V422.508H106.844V479.671H93.8801L93.5932 472.267C92.1782 474.525 90.247 476.553 87.7994 478.351C85.3901 480.149 82.1012 481.048 77.9327 481.048Z" fill="white"/>
<path d="M44.8141 480.436C40.7362 480.436 37.4305 477.129 37.4305 473.049V423.936C37.4305 418.844 33.3047 414.716 28.2152 414.716H25.3551C21.8453 414.716 19 411.87 19 408.358C19 404.847 21.8453 402 25.3551 402H64.2731C67.783 402 70.6282 404.847 70.6282 408.358C70.6282 411.87 67.783 414.716 64.2731 414.716H61.413C56.3236 414.716 52.1978 418.844 52.1978 423.936V473.049C52.1978 477.129 48.892 480.436 44.8141 480.436Z" fill="#00FFFF"/>
<defs>
<linearGradient id="paint0_linear_12_72" x1="184" y1="97.8547" x2="184" y2="402.29" gradientUnits="userSpaceOnUse">
<stop stop-color="#0A74DA"/>
<stop offset="1" stop-color="#6203A7"/>
</linearGradient>
<clipPath id="clip0_12_72">
<rect width="368" height="368" fill="white"/>
</clipPath>
</defs>
</svg>
