<svg width="170" height="158" viewBox="0 0 170 158" fill="none" xmlns="http://www.w3.org/2000/svg">
<path fill-rule="evenodd" clip-rule="evenodd" d="M5 66.5C7.76142 66.5 10 68.7386 10 71.5L10 86.5C10 89.2614 7.76142 91.5 5 91.5V91.5C2.23858 91.5 0 89.2614 0 86.5L0 71.5C0 68.7386 2.23858 66.5 5 66.5V66.5Z" fill="white"/>
<path fill-rule="evenodd" clip-rule="evenodd" d="M25 44.5C27.7614 44.5 30 46.7386 30 49.5L30 106.5C30 109.261 27.7614 111.5 25 111.5V111.5C22.2386 111.5 20 109.261 20 106.5L20 49.5C20 46.7386 22.2386 44.5 25 44.5V44.5Z" fill="white"/>
<path fill-rule="evenodd" clip-rule="evenodd" d="M40 43.847C40 38.3242 35.5228 33.847 30 33.847H25C22.2386 33.847 20 31.6085 20 28.847V28.847C20 26.0856 22.2386 23.847 25 23.847L65 23.847C67.7614 23.847 70 26.0856 70 28.847V28.847C70 31.6085 67.7614 33.847 65 33.847H60C54.4772 33.847 50 38.3242 50 43.847L50 123.153C50 125.914 47.7614 128.153 45 128.153V128.153C42.2386 128.153 40 125.914 40 123.153L40 43.847Z" fill="#00FFFF"/>
<path fill-rule="evenodd" clip-rule="evenodd" d="M65 44.5C67.7614 44.5 70 46.7386 70 49.5V138.5C70 141.261 67.7614 143.5 65 143.5V143.5C62.2386 143.5 60 141.261 60 138.5L60 49.5C60 46.7386 62.2386 44.5 65 44.5V44.5Z" fill="white"/>
<path fill-rule="evenodd" clip-rule="evenodd" d="M85 157.5C82.2386 157.5 80 155.261 80 152.5L80 5.5C80 2.73857 82.2386 0.5 85 0.5C87.7614 0.5 90 2.73857 90 5.5L90 152.5C90 155.261 87.7614 157.5 85 157.5Z" fill="white"/>
<path fill-rule="evenodd" clip-rule="evenodd" d="M105 20.75C107.761 20.75 110 22.9886 110 25.75L110 112.25C110 120.534 116.716 127.25 125 127.25C133.284 127.25 140 120.534 140 112.25V58.75C140 55.9886 142.239 53.75 145 53.75V53.75C147.761 53.75 150 55.9886 150 58.75V112.25C150 126.057 138.807 137.25 125 137.25C111.193 137.25 100 126.057 100 112.25L100 25.75C100 22.9886 102.239 20.75 105 20.75V20.75Z" fill="#00FFFF"/>
<path fill-rule="evenodd" clip-rule="evenodd" d="M125 35.75C127.761 35.75 130 37.9886 130 40.75V112.75C130 115.511 127.761 117.75 125 117.75V117.75C122.239 117.75 120 115.511 120 112.75V40.75C120 37.9886 122.239 35.75 125 35.75V35.75Z" fill="white"/>
<path fill-rule="evenodd" clip-rule="evenodd" d="M165 68C167.761 68 170 70.2386 170 73V85C170 87.7614 167.761 90 165 90V90C162.239 90 160 87.7614 160 85V73C160 70.2386 162.239 68 165 68V68Z" fill="white"/>
</svg>
